<?xml version="1.0" encoding="utf-8"?>
<!-- Generator: Adobe Illustrator 23.0.1, SVG Export Plug-In . SVG Version: 6.00 Build 0)  -->
<svg version="1.1" id="Capa_1" xmlns="http://www.w3.org/2000/svg" xmlns:xlink="http://www.w3.org/1999/xlink" x="0px" y="0px"
	 viewBox="0 0 235 39" style="enable-background:new 0 0 235 39;" xml:space="preserve">
<style type="text/css">
	.st0{fill:#D71920;}
</style>
<g>
	<path class="st0" d="M90,36.2l-0.8-3.6h-7.7l-1.9,3.6h-5.2l10.7-19.3H91l4.7,19.3 M87.5,25.2c-0.3-1.1-0.5-2.1-0.5-3.2H87
		c-0.4,1.1-1,2.3-1.6,3.4l-2.1,3.6h5.2L87.5,25.2z"/>
	<path class="st0" d="M110.9,36.2l-3.9-8.3c-0.7-1.5-1.2-3-1.6-4.2c-0.1,1.4-0.4,3.4-0.7,5.2l-1.2,7.4h-5l3.1-19.3h6.6l3.7,7.6
		c0.7,1.6,1.4,3.3,2,4.8c0.1-1.7,0.4-4.2,0.7-6l1-6.4h5l-3.1,19.3"/>
	<path class="st0" d="M154.7,36.2l-4.1-7.6h-0.2l-1.2,7.6H144l3.1-19.3c1.9-0.1,4.3-0.1,7-0.1c5.3,0,8.2,1.6,7.6,5.7
		c-0.4,2.6-2.7,4.7-5.8,5.4c0.5,0.7,0.9,1.5,1.4,2.2l3.7,6.2 M153.1,20.4c-0.5,0-1.1,0-1.4,0.1l-0.8,5c0.3,0,0.8,0.1,1.3,0.1
		c2.2,0,3.7-1,4-2.6C156.4,21.3,155.6,20.4,153.1,20.4"/>
	<polyline class="st0" points="163.7,36.2 166.8,16.8 179.4,16.8 178.8,20.6 171.4,20.6 170.7,24.4 177.8,24.4 177.2,28.1 
		170.2,28.1 169.5,32.3 176.9,32.3 176.3,36.2 	"/>
	<path class="st0" d="M194.6,36.2l-0.8-3.6h-7.7l-1.9,3.6H179l10.7-19.3h5.9l4.7,19.3 M192.2,25.2c-0.3-1.1-0.5-2.1-0.5-3.2h-0.1
		c-0.4,1.1-1,2.3-1.6,3.4l-2.1,3.6h5.2L192.2,25.2z"/>
	<path class="st0" d="M214.9,36.2l-3.9-8.3c-0.7-1.5-1.2-3-1.6-4.2c-0.1,1.4-0.4,3.4-0.7,5.2l-1.2,7.4h-5l3.1-19.3h6.6l3.7,7.6
		c0.7,1.6,1.4,3.3,2,4.8c0.1-1.7,0.4-4.2,0.7-6l1-6.4h5l-3.1,19.3"/>
	<polyline class="st0" points="226.7,36.2 229.8,16.8 235,16.8 231.9,36.2 	"/>
	<path class="st0" d="M132.6,16.9c-2.4,0-4.9,0.1-6.3,0.1l-0.7,0l-3.2,19.4l2,0.1c1.4,0.1,2.9,0.1,4.7,0.1c4.2,0,7.7-1.3,10-3.8
		c2.1-2.2,3.1-5.3,2.9-8.6C141.9,19.5,138.6,16.9,132.6,16.9 M129.6,32.4l-1.1-0.1c0.2-1,1.7-10.6,1.8-11.4c0.5,0,1.2,0,2,0
		c3.9,0,4.5,1.8,4.6,3.5C137,27.2,135.7,32.4,129.6,32.4"/>
	<path class="st0" d="M62.2,9.3c-3.4-9.1-18.6-11.8-33.9-6C13,9,3.4,21.1,6.8,30.2c3.4,9.1,18.6,11.8,33.9,6
		C56,30.4,65.6,18.4,62.2,9.3 M26.9,35.8c-0.9-0.3-1.1-1-0.3-2.3l4.2-7.1h11.5l1,4.5c0.1,1.1-0.3,1.7-0.8,2.1l-0.8,0.3
		C36.5,35.2,31.4,36,26.9,35.8 M32.4,23.8L38.9,13l2.6,10.8L32.4,23.8z M51.5,27.8c-1.2,0.5-1.5-0.6-1.5-0.6L45.1,8.4
		c0,0-0.7-3.3-3.6-3.3h-0.8l-4.1,7l-13.2,21c-0.9,1.4-1.8,1.8-2.7,1.7c-4-1.3-7.1-3.6-8.3-6.9c-3-7.9,5.2-18.4,18.3-23.4
		c13.1-5,26.2-2.5,29.2,5.4C62.1,15.6,58.5,22.5,51.5,27.8"/>
</g>
</svg>
